<svg width="19" height="19" viewBox="0 0 19 19" fill="none" xmlns="http://www.w3.org/2000/svg">
<path d="M9.79999 0.262894C8.03232 0.262894 6.30435 0.787069 4.83458 1.76913C3.36482 2.7512 2.21928 4.14705 1.54282 5.78016C0.86636 7.41327 0.689368 9.21031 1.03422 10.944C1.37908 12.6777 2.23029 14.2702 3.48022 15.5202C4.73016 16.7701 6.32267 17.6213 8.05637 17.9662C9.79008 18.311 11.5871 18.134 13.2202 17.4576C14.8533 16.7811 16.2492 15.6356 17.2313 14.1658C18.2133 12.696 18.7375 10.9681 18.7375 9.20039C18.735 6.83079 17.7926 4.55895 16.117 2.88339C14.4414 1.20783 12.1696 0.265396 9.79999 0.262894ZM5.16624 15.173C5.66359 14.3952 6.34875 13.7551 7.15855 13.3117C7.96835 12.8683 8.87674 12.6359 9.79999 12.6359C10.7232 12.6359 11.6316 12.8683 12.4414 13.3117C13.2512 13.7551 13.9364 14.3952 14.4337 15.173C13.1089 16.2034 11.4784 16.7628 9.79999 16.7628C8.12161 16.7628 6.49111 16.2034 5.16624 15.173ZM7.04999 8.51289C7.04999 7.969 7.21128 7.43731 7.51345 6.98508C7.81562 6.53284 8.24512 6.18037 8.74761 5.97222C9.25011 5.76408 9.80304 5.70962 10.3365 5.81573C10.8699 5.92184 11.3599 6.18376 11.7445 6.56835C12.1291 6.95294 12.391 7.44295 12.4972 7.9764C12.6033 8.50984 12.5488 9.06278 12.3407 9.56527C12.1325 10.0678 11.78 10.4973 11.3278 10.7994C10.8756 11.1016 10.3439 11.2629 9.79999 11.2629C9.07065 11.2629 8.37117 10.9732 7.85545 10.4574C7.33972 9.94171 7.04999 9.24224 7.04999 8.51289ZM15.4512 14.22C14.6845 13.1089 13.6063 12.2493 12.3523 11.7493C13.0259 11.2188 13.5175 10.4915 13.7586 9.66866C13.9997 8.84582 13.9784 7.9683 13.6976 7.15813C13.4169 6.34796 12.8906 5.6454 12.1921 5.14817C11.4936 4.65094 10.6574 4.38375 9.79999 4.38375C8.94256 4.38375 8.10643 4.65094 7.40789 5.14817C6.70935 5.6454 6.18312 6.34796 5.90237 7.15813C5.62163 7.9683 5.60032 8.84582 5.84143 9.66866C6.08253 10.4915 6.57406 11.2188 7.24765 11.7493C5.99366 12.2493 4.9155 13.1089 4.14874 14.22C3.17985 13.1305 2.54658 11.7841 2.32519 10.3429C2.10379 8.90181 2.3037 7.42741 2.90086 6.09728C3.49801 4.76714 4.46694 3.63798 5.69098 2.84578C6.91501 2.05357 8.34196 1.63209 9.79999 1.63209C11.258 1.63209 12.685 2.05357 13.909 2.84578C15.133 3.63798 16.102 4.76714 16.6991 6.09728C17.2963 7.42741 17.4962 8.90181 17.2748 10.3429C17.0534 11.7841 16.4201 13.1305 15.4512 14.22Z" fill="black"/>
</svg>
