<svg width="19" height="20" viewBox="0 0 19 20" fill="none" xmlns="http://www.w3.org/2000/svg">
<path d="M4.89995 10.0006C4.90496 11.8368 4.48067 13.6487 3.66095 15.2917C3.62182 15.3769 3.56598 15.4534 3.49675 15.5166C3.42751 15.5798 3.34628 15.6284 3.25789 15.6596C3.1695 15.6908 3.07573 15.704 2.98217 15.6982C2.8886 15.6925 2.79713 15.6681 2.7132 15.6263C2.62926 15.5846 2.55456 15.5264 2.49352 15.4553C2.43249 15.3841 2.38637 15.3015 2.35791 15.2121C2.32944 15.1228 2.3192 15.0287 2.32779 14.9354C2.33639 14.842 2.36365 14.7513 2.40795 14.6687C3.1307 13.219 3.50464 11.6205 3.49995 10.0006C3.49831 9.05598 3.7099 8.12318 4.11896 7.27173C4.52802 6.42028 5.124 5.67214 5.86245 5.08309C6.00738 4.96706 6.19246 4.91335 6.37698 4.93378C6.56151 4.95421 6.73036 5.04711 6.84639 5.19203C6.96242 5.33696 7.01613 5.52204 6.9957 5.70656C6.97527 5.89109 6.88238 6.05994 6.73745 6.17597C6.16297 6.63398 5.69934 7.21582 5.38117 7.87807C5.06299 8.54033 4.8985 9.26588 4.89995 10.0006ZM9.79996 9.3006C9.61431 9.3006 9.43626 9.37435 9.30498 9.50562C9.17371 9.6369 9.09996 9.81495 9.09996 10.0006C9.09981 12.7278 8.40735 15.4103 7.08745 17.7969C6.99741 17.9593 6.97559 18.1509 7.02679 18.3294C7.07799 18.5079 7.19801 18.6588 7.36045 18.7489C7.5229 18.8389 7.71446 18.8607 7.893 18.8095C8.07153 18.7583 8.22241 18.6383 8.31246 18.4759C9.74709 15.8814 10.4998 12.9653 10.5 10.0006C10.5 9.81495 10.4262 9.6369 10.2949 9.50562C10.1637 9.37435 9.98561 9.3006 9.79996 9.3006ZM9.79996 6.5006C8.8717 6.5006 7.98146 6.86934 7.32508 7.52572C6.6687 8.1821 6.29995 9.07234 6.29995 10.0006C6.29995 10.1863 6.3737 10.3643 6.50498 10.4956C6.63625 10.6269 6.8143 10.7006 6.99995 10.7006C7.18561 10.7006 7.36365 10.6269 7.49493 10.4956C7.6262 10.3643 7.69995 10.1863 7.69995 10.0006C7.69995 9.44364 7.9212 8.9095 8.31503 8.51567C8.70886 8.12185 9.243 7.9006 9.79996 7.9006C10.3569 7.9006 10.8911 8.12185 11.2849 8.51567C11.6787 8.9095 11.9 9.44364 11.9 10.0006C11.9072 12.7839 11.2942 15.5339 10.1053 18.0506C10.0661 18.134 10.0437 18.2242 10.0393 18.3163C10.035 18.4083 10.0488 18.5003 10.08 18.587C10.1112 18.6737 10.1591 18.7534 10.2211 18.8216C10.2831 18.8897 10.358 18.945 10.4413 18.9842C10.5247 19.0235 10.615 19.0459 10.707 19.0503C10.799 19.0546 10.891 19.0408 10.9777 19.0096C11.0644 18.9784 11.1441 18.9304 11.2123 18.8684C11.2804 18.8064 11.3357 18.7316 11.375 18.6482C12.651 15.9445 13.3086 12.9903 13.3 10.0006C13.3 9.07234 12.9312 8.1821 12.2748 7.52572C11.6185 6.86934 10.7282 6.5006 9.79996 6.5006ZM9.79996 0.900589C7.38727 0.903137 5.07412 1.8627 3.36809 3.56873C1.66206 5.27477 0.702494 7.58791 0.699946 10.0006C0.701245 10.8747 0.553286 11.7427 0.262446 12.567C0.200601 12.7421 0.210844 12.9346 0.290922 13.1021C0.371 13.2696 0.514354 13.3985 0.689446 13.4604C0.864539 13.5222 1.05703 13.512 1.22457 13.4319C1.39211 13.3518 1.52098 13.2084 1.58282 13.0334C1.92624 12.0592 2.10112 11.0336 2.09995 10.0006C2.09995 7.95843 2.9112 5.9999 4.35523 4.55587C5.79926 3.11184 7.75779 2.30059 9.79996 2.30059C11.8421 2.30059 13.8007 3.11184 15.2447 4.55587C16.6887 5.9999 17.5 7.95843 17.5 10.0006C17.5003 11.6 17.3453 13.1956 17.0371 14.765C17.0193 14.8552 17.0194 14.948 17.0374 15.0382C17.0555 15.1283 17.0911 15.214 17.1423 15.2904C17.1935 15.3668 17.2593 15.4324 17.3358 15.4833C17.4123 15.5343 17.4981 15.5697 17.5883 15.5875C17.633 15.5961 17.6784 15.6005 17.724 15.6006C17.886 15.6004 18.0429 15.5441 18.168 15.4412C18.2931 15.3383 18.3786 15.1951 18.41 15.0362C18.7359 13.3775 18.9 11.691 18.9 10.0006C18.8972 7.58798 17.9375 5.27497 16.2316 3.56899C14.5256 1.86301 12.2126 0.903368 9.79996 0.900589ZM6.85995 12.1155C6.67841 12.0794 6.48995 12.1166 6.3358 12.2191C6.18166 12.3216 6.07439 12.481 6.03745 12.6624C5.75342 14.0603 5.24488 15.403 4.53158 16.6384C4.43875 16.7992 4.41361 16.9903 4.46169 17.1696C4.50977 17.349 4.62713 17.5019 4.78795 17.5947C4.94877 17.6876 5.13988 17.7127 5.31924 17.6646C5.49859 17.6165 5.6515 17.4992 5.74433 17.3384C6.53261 15.9723 7.09407 14.4874 7.40683 12.9415C7.42522 12.8513 7.42566 12.7584 7.40813 12.6681C7.39059 12.5778 7.35542 12.4918 7.30463 12.4151C7.25384 12.3384 7.18842 12.2724 7.11212 12.221C7.03582 12.1696 6.95013 12.1337 6.85995 12.1155ZM9.79996 3.70059C9.5367 3.70065 9.27369 3.71701 9.01246 3.74959C8.8317 3.77673 8.66872 3.87349 8.55836 4.0192C8.448 4.16491 8.39901 4.34801 8.42187 4.52936C8.44472 4.71071 8.53761 4.87593 8.68067 4.9897C8.82373 5.10348 9.00562 5.15678 9.18746 5.13822C9.87706 5.05247 10.577 5.11417 11.241 5.31923C11.905 5.5243 12.5178 5.86805 13.0389 6.32773C13.5601 6.78742 13.9777 7.35256 14.264 7.98573C14.5504 8.61891 14.699 9.30568 14.7 10.0006C14.6998 10.9074 14.6437 11.8132 14.532 12.7131C14.5197 12.8046 14.5256 12.8977 14.5495 12.9869C14.5733 13.0761 14.6145 13.1597 14.6708 13.2329C14.7271 13.3061 14.7973 13.3674 14.8774 13.4134C14.9575 13.4593 15.0459 13.489 15.1375 13.5006C15.1665 13.5041 15.1957 13.5058 15.225 13.5059C15.3952 13.5055 15.5595 13.4431 15.687 13.3304C15.8146 13.2176 15.8967 13.0623 15.918 12.8934C16.036 11.9354 16.0945 10.971 16.093 10.0058C16.0925 8.33585 15.4297 6.73421 14.25 5.55219C13.0703 4.37018 11.4699 3.7043 9.79996 3.70059ZM14.8688 14.9225C14.7798 14.8995 14.6871 14.8942 14.596 14.907C14.5049 14.9199 14.4172 14.9505 14.338 14.9972C14.2588 15.044 14.1895 15.1058 14.1342 15.1793C14.0789 15.2528 14.0387 15.3365 14.0157 15.4256C13.888 15.9235 13.7401 16.4231 13.5782 16.9131C13.519 17.0887 13.5318 17.2806 13.6138 17.4467C13.6958 17.6129 13.8403 17.7397 14.0157 17.7995C14.0876 17.8239 14.1629 17.8363 14.2388 17.8362C14.3855 17.8361 14.5284 17.7899 14.6474 17.7042C14.7664 17.6185 14.8555 17.4976 14.9021 17.3585C15.0771 16.8405 15.2337 16.3085 15.3702 15.7791C15.3937 15.69 15.3993 15.5972 15.3869 15.506C15.3744 15.4147 15.344 15.3269 15.2976 15.2474C15.2511 15.1679 15.1893 15.0983 15.1159 15.0427C15.0425 14.9871 14.9588 14.9466 14.8697 14.9234L14.8688 14.9225Z" fill="black"/>
</svg>
