<svg width="16" height="11" viewBox="0 0 16 11" fill="none" xmlns="http://www.w3.org/2000/svg">
<path fill-rule="evenodd" clip-rule="evenodd" d="M9.05745 2.66406L15.5796 0.773003L13.9563 7.36691L11.9311 5.42277L8.66439 8.82559C8.55349 8.94111 8.40028 9.00641 8.24014 9.00641C8.08 9.00641 7.92679 8.94111 7.81589 8.82559L5.41726 6.32701L1.88947 10.0018C1.66453 10.2361 1.29225 10.2437 1.05794 10.0188C0.823634 9.79383 0.816037 9.42154 1.04097 9.18724L4.99301 5.07053C5.10391 4.95501 5.25712 4.88971 5.41726 4.88971C5.57739 4.88971 5.7306 4.95501 5.8415 5.07053L8.24014 7.56911L11.0826 4.60821L9.05745 2.66406Z" fill="#ABE423"/>
</svg>
