<svg width="20" height="19" viewBox="0 0 20 19" fill="none" xmlns="http://www.w3.org/2000/svg">
<path d="M13.3724 4.63821C12.7502 3.18153 11.6441 1.98439 10.2411 1.24916C8.83808 0.513931 7.22421 0.28573 5.67235 0.603136C4.12049 0.920542 2.72583 1.76408 1.72416 2.99115C0.72249 4.21821 0.175261 5.75352 0.174988 7.33751V13.0094C0.174988 13.3285 0.301745 13.6345 0.527375 13.8601C0.753005 14.0858 1.05902 14.2125 1.37811 14.2125H6.24819C6.78468 15.4377 7.66627 16.4801 8.78533 17.2127C9.90439 17.9452 11.2125 18.336 12.55 18.3375H18.2219C18.541 18.3375 18.847 18.2108 19.0726 17.9851C19.2982 17.7595 19.425 17.4535 19.425 17.1344V11.4625C19.4247 9.7818 18.8087 8.15942 17.6935 6.90201C16.5782 5.6446 15.0411 4.83927 13.3724 4.63821ZM1.54999 7.33751C1.54999 6.24971 1.87256 5.18634 2.47691 4.28187C3.08125 3.3774 3.94024 2.67245 4.94523 2.25617C5.95022 1.83989 7.05609 1.73097 8.12298 1.94319C9.18988 2.15541 10.1699 2.67923 10.9391 3.44842C11.7083 4.21761 12.2321 5.19762 12.4443 6.26451C12.6565 7.33141 12.5476 8.43727 12.1313 9.44227C11.715 10.4473 11.0101 11.3062 10.1056 11.9106C9.20115 12.5149 8.13778 12.8375 7.04999 12.8375H1.54999V7.33751ZM18.05 16.9625H12.55C11.5774 16.9614 10.6225 16.703 9.78212 16.2135C8.94173 15.724 8.2458 15.0209 7.76499 14.1756C8.70662 14.0778 9.61789 13.7865 10.4416 13.3199C11.2653 12.8533 11.9837 12.2215 12.5516 11.4641C13.1195 10.7067 13.5248 9.84005 13.7419 8.91859C13.959 7.99714 13.9833 7.04075 13.8133 6.10946C15.0192 6.39406 16.0937 7.07752 16.8627 8.0491C17.6316 9.02068 18.05 10.2234 18.05 11.4625V16.9625Z" fill="black"/>
</svg>
