<svg xmlns="http://www.w3.org/2000/svg" width="19" height="19" viewBox="0 0 19 19" fill="none">
<path d="M7.39374 8.80569C7.49828 8.74534 7.58508 8.65852 7.64542 8.55398C7.70577 8.44944 7.73752 8.33085 7.73749 8.21014V2.02264C7.73688 1.91303 7.71007 1.80516 7.65929 1.70802C7.60852 1.61088 7.53525 1.52729 7.4456 1.46421C7.35596 1.40114 7.25253 1.36042 7.14394 1.34544C7.03536 1.33046 6.92477 1.34167 6.8214 1.37811C4.81474 2.08831 3.12722 3.49101 2.06219 5.33405C0.99717 7.17709 0.624495 9.33958 1.01116 11.4328C1.03121 11.541 1.07695 11.6429 1.14454 11.7298C1.21214 11.8167 1.29961 11.8861 1.3996 11.9321C1.48971 11.9742 1.58802 11.996 1.68749 11.9957C1.80816 11.9957 1.92671 11.964 2.03124 11.9037L7.39374 8.80569ZM6.36249 3.06421V7.81311L2.2478 10.1876C2.23749 10.0578 2.23749 9.92718 2.23749 9.79999C2.23871 8.40639 2.62446 7.04016 3.35227 5.85171C4.08007 4.66326 5.12171 3.69869 6.36249 3.06421ZM18.7375 9.79999C18.7382 11.762 18.0932 13.6698 16.902 15.2289C15.7109 16.7881 14.0398 17.9119 12.1466 18.427C10.2533 18.9422 8.24319 18.82 6.42628 18.0794C4.60938 17.3387 3.08667 16.0208 2.09312 14.3289C2.0468 14.2507 2.01643 14.1642 2.00376 14.0742C1.9911 13.9843 1.99638 13.8927 2.01932 13.8048C2.04225 13.7169 2.08238 13.6344 2.13738 13.5621C2.19238 13.4898 2.26116 13.4291 2.33976 13.3836L9.11249 9.44163V1.54999C9.11249 1.36765 9.18493 1.19278 9.31386 1.06385C9.44279 0.934921 9.61766 0.862488 9.79999 0.862488C11.3596 0.863284 12.892 1.27201 14.2448 2.04809C15.5977 2.82416 16.724 3.9406 17.512 5.28655C17.5215 5.3003 17.5301 5.31405 17.5387 5.32866C17.5473 5.34327 17.5559 5.36046 17.5636 5.37593C18.3347 6.72271 18.7395 8.24806 18.7375 9.79999Z" fill="#000000"/>
</svg>