<svg width="20" height="18" viewBox="0 0 20 18" fill="none" xmlns="http://www.w3.org/2000/svg">
<path d="M18.05 0.724991H12.55C12.0163 0.724991 11.49 0.84924 11.0127 1.0879C10.5354 1.32656 10.1202 1.67307 9.79999 2.09999C9.47979 1.67307 9.0646 1.32656 8.58728 1.0879C8.10997 0.84924 7.58364 0.724991 7.04999 0.724991H1.54999C1.18532 0.724991 0.835578 0.869856 0.577716 1.12772C0.319853 1.38558 0.174988 1.73532 0.174988 2.09999V13.1C0.174988 13.4647 0.319853 13.8144 0.577716 14.0723C0.835578 14.3301 1.18532 14.475 1.54999 14.475H7.04999C7.597 14.475 8.1216 14.6923 8.5084 15.0791C8.89519 15.4659 9.11249 15.9905 9.11249 16.5375C9.11249 16.7198 9.18492 16.8947 9.31385 17.0236C9.44278 17.1526 9.61765 17.225 9.79999 17.225C9.98232 17.225 10.1572 17.1526 10.2861 17.0236C10.4151 16.8947 10.4875 16.7198 10.4875 16.5375C10.4875 15.9905 10.7048 15.4659 11.0916 15.0791C11.4784 14.6923 12.003 14.475 12.55 14.475H18.05C18.4147 14.475 18.7644 14.3301 19.0223 14.0723C19.2801 13.8144 19.425 13.4647 19.425 13.1V2.09999C19.425 1.73532 19.2801 1.38558 19.0223 1.12772C18.7644 0.869856 18.4147 0.724991 18.05 0.724991ZM7.04999 13.1H1.54999V2.09999H7.04999C7.597 2.09999 8.1216 2.31729 8.5084 2.70408C8.89519 3.09088 9.11249 3.61548 9.11249 4.16249V13.7875C8.51803 13.3402 7.79395 13.0988 7.04999 13.1ZM18.05 13.1H12.55C11.806 13.0988 11.0819 13.3402 10.4875 13.7875V4.16249C10.4875 3.61548 10.7048 3.09088 11.0916 2.70408C11.4784 2.31729 12.003 2.09999 12.55 2.09999H18.05V13.1Z" fill="#1C1C1C"/>
</svg>
