<svg width="19" height="15" viewBox="0 0 19 15" fill="none" xmlns="http://www.w3.org/2000/svg">
<path d="M17.3625 2.1875H10.0294L7.64553 0.4C7.40718 0.222157 7.11792 0.125738 6.82053 0.125H2.23749C1.87282 0.125 1.52308 0.269866 1.26522 0.527728C1.00735 0.785591 0.862488 1.13533 0.862488 1.5V13.1875C0.862488 13.5522 1.00735 13.9019 1.26522 14.1598C1.52308 14.4176 1.87282 14.5625 2.23749 14.5625H17.3625C17.7272 14.5625 18.0769 14.4176 18.3348 14.1598C18.5926 13.9019 18.7375 13.5522 18.7375 13.1875V3.5625C18.7375 3.19783 18.5926 2.84809 18.3348 2.59023C18.0769 2.33237 17.7272 2.1875 17.3625 2.1875ZM2.23749 1.5H6.82053L8.65444 2.875L6.82053 4.25H2.23749V1.5ZM17.3625 13.1875H2.23749V5.625H6.82053C7.11792 5.62426 7.40718 5.52784 7.64553 5.35L10.0294 3.5625H17.3625V13.1875Z" fill="#1C1C1C"/>
</svg>
