<svg width="19" height="18" viewBox="0 0 19 18" fill="none" xmlns="http://www.w3.org/2000/svg">
<path d="M10.5 4.59995V8.40364L13.6606 10.2998C13.8198 10.3954 13.9345 10.5504 13.9794 10.7305C14.0244 10.9107 13.9959 11.1014 13.9003 11.2606C13.8047 11.4198 13.6498 11.5345 13.4696 11.5794C13.2894 11.6244 13.0987 11.5959 12.9395 11.5003L9.43948 9.40029C9.33589 9.33805 9.25018 9.25005 9.19068 9.14487C9.13119 9.03968 9.09994 8.92087 9.09998 8.80003V4.59995C9.09998 4.4143 9.17373 4.23625 9.305 4.10497C9.43628 3.97369 9.61433 3.89994 9.79999 3.89994C9.98564 3.89994 10.1637 3.97369 10.295 4.10497C10.4262 4.23625 10.5 4.4143 10.5 4.59995ZM9.79999 0.399879C8.69571 0.397128 7.60186 0.613412 6.58173 1.03621C5.5616 1.45901 4.63545 2.07994 3.85688 2.86305C3.22075 3.50706 2.65549 4.12657 2.09985 4.77496V3.19993C2.09985 3.01427 2.0261 2.83622 1.89482 2.70494C1.76355 2.57367 1.5855 2.49992 1.39984 2.49992C1.21419 2.49992 1.03614 2.57367 0.904858 2.70494C0.77358 2.83622 0.699829 3.01427 0.699829 3.19993V6.69999C0.699829 6.88564 0.77358 7.06369 0.904858 7.19497C1.03614 7.32625 1.21419 7.4 1.39984 7.4H4.8999C5.08556 7.4 5.26361 7.32625 5.39489 7.19497C5.52616 7.06369 5.59991 6.88564 5.59991 6.69999C5.59991 6.51433 5.52616 6.33628 5.39489 6.20501C5.26361 6.07373 5.08556 5.99998 4.8999 5.99998H2.88737C3.513 5.26321 4.13601 4.56933 4.84653 3.85006C5.81942 2.87718 7.05743 2.21257 8.40589 1.93927C9.75434 1.66598 11.1534 1.79612 12.4283 2.31344C13.7033 2.83075 14.7974 3.71231 15.5742 4.84794C16.351 5.98357 16.7758 7.32293 16.7957 8.69866C16.8156 10.0744 16.4297 11.4255 15.6861 12.5831C14.9425 13.7407 13.8743 14.6536 12.6149 15.2075C11.3555 15.7615 9.96072 15.9321 8.60492 15.6979C7.24913 15.4637 5.9924 14.8352 4.99178 13.8909C4.9249 13.8277 4.84623 13.7783 4.76026 13.7455C4.67429 13.7127 4.5827 13.6971 4.49072 13.6997C4.39874 13.7023 4.30818 13.723 4.2242 13.7606C4.14021 13.7982 4.06446 13.852 4.00126 13.9189C3.93806 13.9857 3.88865 14.0644 3.85586 14.1504C3.82306 14.2364 3.80752 14.3279 3.81012 14.4199C3.81272 14.5119 3.83341 14.6025 3.87101 14.6864C3.90861 14.7704 3.96239 14.8462 4.02926 14.9094C5.0263 15.8503 6.23846 16.5328 7.55995 16.8975C8.88144 17.2622 10.2721 17.2979 11.6106 17.0015C12.949 16.7051 14.1946 16.0857 15.2386 15.1972C16.2827 14.3087 17.0933 13.1783 17.6 11.9044C18.1066 10.6306 18.2938 9.2521 18.1452 7.8893C17.9965 6.52649 17.5166 5.22077 16.7473 4.08608C15.978 2.9514 14.9427 2.02225 13.7317 1.37971C12.5207 0.737166 11.1709 0.400771 9.79999 0.399879Z" fill="black"/>
</svg>
