<svg width="21" height="21" viewBox="0 0 21 21" fill="none" xmlns="http://www.w3.org/2000/svg">
<path d="M9.16364 19.8006C9.16364 20.0224 9.07552 20.2351 8.91867 20.392C8.76182 20.5488 8.54909 20.6369 8.32727 20.6369H1.63635C1.41453 20.6369 1.2018 20.5488 1.04495 20.392C0.888105 20.2351 0.799988 20.0224 0.799988 19.8006V1.40054C0.799988 1.17873 0.888105 0.965993 1.04495 0.809144C1.2018 0.652295 1.41453 0.564178 1.63635 0.564178H8.32727C8.54909 0.564178 8.76182 0.652295 8.91867 0.809144C9.07552 0.965993 9.16364 1.17873 9.16364 1.40054C9.16364 1.62236 9.07552 1.83509 8.91867 1.99194C8.76182 2.14879 8.54909 2.23691 8.32727 2.23691H2.47272V18.9642H8.32727C8.54909 18.9642 8.76182 19.0523 8.91867 19.2092C9.07552 19.366 9.16364 19.5788 9.16364 19.8006ZM20.6281 10.0088L16.4463 5.827C16.2893 5.67007 16.0765 5.5819 15.8546 5.5819C15.6326 5.5819 15.4198 5.67007 15.2628 5.827C15.1059 5.98394 15.0177 6.19679 15.0177 6.41873C15.0177 6.64067 15.1059 6.85352 15.2628 7.01046L18.0176 9.76419H8.32727C8.10545 9.76419 7.89272 9.85231 7.73587 10.0092C7.57902 10.166 7.49091 10.3787 7.49091 10.6006C7.49091 10.8224 7.57902 11.0351 7.73587 11.192C7.89272 11.3488 8.10545 11.4369 8.32727 11.4369H18.0176L15.2628 14.1907C15.1059 14.3476 15.0177 14.5604 15.0177 14.7824C15.0177 15.0043 15.1059 15.2172 15.2628 15.3741C15.4198 15.531 15.6326 15.6192 15.8546 15.6192C16.0765 15.6192 16.2893 15.531 16.4463 15.3741L20.6281 11.1923C20.7059 11.1146 20.7676 11.0224 20.8096 10.9208C20.8517 10.8193 20.8734 10.7105 20.8734 10.6006C20.8734 10.4906 20.8517 10.3818 20.8096 10.2803C20.7676 10.1787 20.7059 10.0865 20.6281 10.0088Z" fill="black"/>
</svg>
