<svg width="19" height="15" viewBox="0 0 19 15" fill="none" xmlns="http://www.w3.org/2000/svg">
<path d="M17.9775 0.324997H1.47754C1.2952 0.324997 1.12033 0.39743 0.991403 0.526361C0.862472 0.655292 0.790039 0.830161 0.790039 1.0125V12.7C0.790039 13.0647 0.934905 13.4144 1.19277 13.6723C1.45063 13.9301 1.80037 14.075 2.16504 14.075H17.29C17.6547 14.075 18.0044 13.9301 18.2623 13.6723C18.5202 13.4144 18.665 13.0647 18.665 12.7V1.0125C18.665 0.830161 18.5926 0.655292 18.4637 0.526361C18.3347 0.39743 18.1599 0.324997 17.9775 0.324997ZM2.16504 5.825H5.60254V8.575H2.16504V5.825ZM6.97754 5.825H17.29V8.575H6.97754V5.825ZM17.29 1.7V4.45H2.16504V1.7H17.29ZM2.16504 9.95H5.60254V12.7H2.16504V9.95ZM17.29 12.7H6.97754V9.95H17.29V12.7Z" fill="black"/>
</svg>
