<svg width="14" height="14" viewBox="0 0 14 14" fill="none" xmlns="http://www.w3.org/2000/svg">
<path d="M13.35 13.3563C13.2567 13.4482 13.131 13.4998 13 13.5C12.8672 13.4994 12.7397 13.448 12.6438 13.3563L9.94376 10.65C8.80662 11.6051 7.34465 12.0844 5.86276 11.9878C4.38086 11.8912 2.99346 11.2263 1.98991 10.1316C0.986362 9.03701 0.444151 7.5972 0.476363 6.11251C0.508576 4.62782 1.11272 3.21289 2.1628 2.16281C3.21289 1.11272 4.62782 0.508576 6.11251 0.476363C7.5972 0.444151 9.03701 0.986362 10.1316 1.98991C11.2263 2.99346 11.8912 4.38086 11.9878 5.86276C12.0844 7.34465 11.6051 8.80662 10.65 9.94376L13.35 12.6438C13.3972 12.6903 13.4348 12.7457 13.4604 12.8069C13.486 12.8681 13.4992 12.9337 13.4992 13C13.4992 13.0663 13.486 13.132 13.4604 13.1931C13.4348 13.2543 13.3972 13.3097 13.35 13.3563ZM6.25001 11C7.18947 11 8.10783 10.7214 8.88896 10.1995C9.6701 9.67755 10.2789 8.9357 10.6384 8.06775C10.9979 7.1998 11.092 6.24474 10.9087 5.32333C10.7255 4.40192 10.2731 3.55555 9.60876 2.89125C8.94446 2.22695 8.09809 1.77456 7.17668 1.59128C6.25527 1.408 5.30021 1.50206 4.43226 1.86158C3.56431 2.22109 2.82246 2.82991 2.30052 3.61105C1.77859 4.39218 1.50001 5.31054 1.50001 6.25001C1.50166 7.50928 2.00264 8.7165 2.89307 9.60694C3.78351 10.4974 4.99073 10.9984 6.25001 11Z" fill="#1C1C1C" fill-opacity="0.2"/>
</svg>
