<svg width="22" height="21" viewBox="0 0 22 21" fill="none" xmlns="http://www.w3.org/2000/svg">
<path d="M10.1125 2.83789V0.775391C10.1125 0.593054 10.1849 0.418186 10.3139 0.289255C10.4428 0.160323 10.6177 0.0878906 10.8 0.0878906C10.9823 0.0878906 11.1572 0.160323 11.2861 0.289255C11.4151 0.418186 11.4875 0.593054 11.4875 0.775391V2.83789C11.4875 3.02023 11.4151 3.1951 11.2861 3.32403C11.1572 3.45296 10.9823 3.52539 10.8 3.52539C10.6177 3.52539 10.4428 3.45296 10.3139 3.32403C10.1849 3.1951 10.1125 3.02023 10.1125 2.83789ZM16.3 10.4004C16.3 11.4882 15.9774 12.5516 15.3731 13.456C14.7687 14.3605 13.9097 15.0654 12.9047 15.4817C11.8998 15.898 10.7939 16.0069 9.72699 15.7947C8.6601 15.5825 7.68009 15.0587 6.9109 14.2895C6.14171 13.5203 5.61789 12.5403 5.40567 11.4734C5.19345 10.4065 5.30237 9.30063 5.71865 8.29563C6.13493 7.29064 6.83988 6.43166 7.74435 5.82731C8.64882 5.22296 9.71219 4.90039 10.8 4.90039C12.2582 4.90198 13.6562 5.48196 14.6873 6.51306C15.7184 7.54417 16.2984 8.94219 16.3 10.4004ZM14.925 10.4004C14.925 9.58454 14.6831 8.78702 14.2298 8.10866C13.7765 7.43031 13.1323 6.9016 12.3786 6.58939C11.6248 6.27718 10.7954 6.19549 9.99524 6.35465C9.19507 6.51382 8.46006 6.90668 7.88317 7.48358C7.30628 8.06047 6.91341 8.79547 6.75425 9.59564C6.59508 10.3958 6.67677 11.2252 6.98899 11.979C7.3012 12.7327 7.82991 13.3769 8.50826 13.8302C9.18661 14.2835 9.98414 14.5254 10.8 14.5254C11.8937 14.5243 12.9422 14.0893 13.7155 13.316C14.4889 12.5426 14.9239 11.4941 14.925 10.4004ZM4.81358 5.3868C4.94258 5.5158 5.11755 5.58827 5.29999 5.58827C5.48243 5.58827 5.65739 5.5158 5.78639 5.3868C5.9154 5.25779 5.98787 5.08283 5.98787 4.90039C5.98787 4.71795 5.9154 4.54299 5.78639 4.41398L4.41139 3.03898C4.28239 2.90998 4.10743 2.83751 3.92499 2.83751C3.74255 2.83751 3.56758 2.90998 3.43858 3.03898C3.30958 3.16799 3.23711 3.34295 3.23711 3.52539C3.23711 3.70783 3.30958 3.88279 3.43858 4.0118L4.81358 5.3868ZM4.81358 15.414L3.43858 16.789C3.30958 16.918 3.23711 17.093 3.23711 17.2754C3.23711 17.4578 3.30958 17.6328 3.43858 17.7618C3.56758 17.8908 3.74255 17.9633 3.92499 17.9633C4.10743 17.9633 4.28239 17.8908 4.41139 17.7618L5.78639 16.3868C5.85027 16.3229 5.90094 16.2471 5.93551 16.1636C5.97008 16.0802 5.98787 15.9907 5.98787 15.9004C5.98787 15.8101 5.97008 15.7206 5.93551 15.6371C5.90094 15.5537 5.85027 15.4779 5.78639 15.414C5.72252 15.3501 5.64669 15.2994 5.56323 15.2649C5.47977 15.2303 5.39032 15.2125 5.29999 15.2125C5.20965 15.2125 5.1202 15.2303 5.03675 15.2649C4.95329 15.2994 4.87746 15.3501 4.81358 15.414ZM16.3 5.58789C16.3903 5.58796 16.4797 5.57024 16.5632 5.53573C16.6467 5.50123 16.7225 5.45062 16.7864 5.3868L18.1614 4.0118C18.2904 3.88279 18.3629 3.70783 18.3629 3.52539C18.3629 3.34295 18.2904 3.16799 18.1614 3.03898C18.0324 2.90998 17.8574 2.83751 17.675 2.83751C17.4925 2.83751 17.3176 2.90998 17.1886 3.03898L15.8136 4.41398C15.7173 4.51014 15.6518 4.63268 15.6252 4.76612C15.5986 4.89955 15.6122 5.03787 15.6643 5.16356C15.7164 5.28925 15.8046 5.39666 15.9177 5.4722C16.0309 5.54773 16.1639 5.588 16.3 5.58789ZM16.7864 15.414C16.6574 15.285 16.4824 15.2125 16.3 15.2125C16.1175 15.2125 15.9426 15.285 15.8136 15.414C15.6846 15.543 15.6121 15.718 15.6121 15.9004C15.6121 16.0828 15.6846 16.2578 15.8136 16.3868L17.1886 17.7618C17.2525 17.8257 17.3283 17.8763 17.4117 17.9109C17.4952 17.9455 17.5847 17.9633 17.675 17.9633C17.7653 17.9633 17.8548 17.9455 17.9382 17.9109C18.0217 17.8763 18.0975 17.8257 18.1614 17.7618C18.2253 17.6979 18.2759 17.6221 18.3105 17.5386C18.3451 17.4552 18.3629 17.3657 18.3629 17.2754C18.3629 17.1851 18.3451 17.0956 18.3105 17.0121C18.2759 16.9287 18.2253 16.8529 18.1614 16.789L16.7864 15.414ZM3.92499 10.4004C3.92499 10.2181 3.85255 10.0432 3.72362 9.91426C3.59469 9.78532 3.41982 9.71289 3.23749 9.71289H1.17499C0.992651 9.71289 0.817783 9.78532 0.688852 9.91426C0.559921 10.0432 0.487488 10.2181 0.487488 10.4004C0.487488 10.5827 0.559921 10.7576 0.688852 10.8865C0.817783 11.0155 0.992651 11.0879 1.17499 11.0879H3.23749C3.41982 11.0879 3.59469 11.0155 3.72362 10.8865C3.85255 10.7576 3.92499 10.5827 3.92499 10.4004ZM10.8 17.2754C10.6177 17.2754 10.4428 17.3478 10.3139 17.4768C10.1849 17.6057 10.1125 17.7806 10.1125 17.9629V20.0254C10.1125 20.2077 10.1849 20.3826 10.3139 20.5115C10.4428 20.6405 10.6177 20.7129 10.8 20.7129C10.9823 20.7129 11.1572 20.6405 11.2861 20.5115C11.4151 20.3826 11.4875 20.2077 11.4875 20.0254V17.9629C11.4875 17.7806 11.4151 17.6057 11.2861 17.4768C11.1572 17.3478 10.9823 17.2754 10.8 17.2754ZM20.425 9.71289H18.3625C18.1802 9.71289 18.0053 9.78532 17.8764 9.91426C17.7474 10.0432 17.675 10.2181 17.675 10.4004C17.675 10.5827 17.7474 10.7576 17.8764 10.8865C18.0053 11.0155 18.1802 11.0879 18.3625 11.0879H20.425C20.6073 11.0879 20.7822 11.0155 20.9111 10.8865C21.0401 10.7576 21.1125 10.5827 21.1125 10.4004C21.1125 10.2181 21.0401 10.0432 20.9111 9.91426C20.7822 9.78532 20.6073 9.71289 20.425 9.71289Z" fill="black"/>
</svg>
