<svg width="18" height="20" viewBox="0 0 18 20" fill="none" xmlns="http://www.w3.org/2000/svg">
<path d="M13.925 12.7504C13.4664 12.7502 13.0124 12.8421 12.5899 13.0206C12.1675 13.199 11.7851 13.4605 11.4655 13.7894L7.50376 11.243C7.81539 10.4439 7.81539 9.55685 7.50376 8.75772L11.4655 6.21139C12.0606 6.82096 12.8608 7.18786 13.711 7.24094C14.5612 7.29403 15.4009 7.02953 16.0672 6.49872C16.7334 5.96791 17.1789 5.2086 17.3172 4.36802C17.4554 3.52744 17.2766 2.66546 16.8154 1.94921C16.3543 1.23295 15.6436 0.713456 14.8211 0.49143C13.9987 0.269404 13.1231 0.360668 12.3642 0.747529C11.6052 1.13439 11.0169 1.78929 10.7134 2.58525C10.4098 3.38121 10.4126 4.26153 10.7213 5.05553L6.75954 7.60186C6.28248 7.11208 5.67019 6.77569 5.00095 6.6357C4.33171 6.49571 3.63593 6.55847 3.00255 6.81596C2.36917 7.07345 1.82696 7.51397 1.44523 8.08122C1.06351 8.64846 0.859619 9.31665 0.859619 10.0004C0.859619 10.6841 1.06351 11.3523 1.44523 11.9195C1.82696 12.4868 2.36917 12.9273 3.00255 13.1848C3.63593 13.4423 4.33171 13.505 5.00095 13.365C5.67019 13.2251 6.28248 12.8887 6.75954 12.3989L10.7213 14.9452C10.4559 15.6297 10.4166 16.3812 10.6092 17.0897C10.8018 17.7981 11.2162 18.4263 11.7916 18.8822C12.3671 19.3381 13.0734 19.5978 13.8071 19.6233C14.5408 19.6488 15.2634 19.4386 15.8691 19.0237C16.4747 18.6088 16.9317 18.0108 17.1729 17.3174C17.4142 16.624 17.4271 15.8716 17.2097 15.1703C16.9924 14.4691 16.5563 13.8558 15.9652 13.4204C15.3741 12.9849 14.6592 12.7501 13.925 12.7504ZM13.925 1.75037C14.3329 1.75037 14.7317 1.87134 15.0709 2.09797C15.4101 2.3246 15.6744 2.64672 15.8305 3.02359C15.9866 3.40046 16.0275 3.81516 15.9479 4.21525C15.8683 4.61533 15.6719 4.98283 15.3834 5.27128C15.095 5.55973 14.7275 5.75616 14.3274 5.83574C13.9273 5.91532 13.5126 5.87448 13.1357 5.71837C12.7589 5.56227 12.4367 5.29791 12.2101 4.95874C11.9835 4.61956 11.8625 4.2208 11.8625 3.81287C11.8625 3.26586 12.0798 2.74126 12.4666 2.35446C12.8534 1.96767 13.378 1.75037 13.925 1.75037ZM4.30001 12.0629C3.89209 12.0629 3.49332 11.9419 3.15415 11.7153C2.81497 11.4886 2.55062 11.1665 2.39451 10.7897C2.2384 10.4128 2.19756 9.99809 2.27714 9.598C2.35672 9.19791 2.55316 8.83041 2.8416 8.54196C3.13005 8.25352 3.49755 8.05709 3.89764 7.9775C4.29772 7.89792 4.71242 7.93877 5.0893 8.09487C5.46617 8.25098 5.78829 8.51533 6.01492 8.85451C6.24155 9.19369 6.36251 9.59245 6.36251 10.0004C6.36251 10.5474 6.14521 11.072 5.75842 11.4588C5.37163 11.8456 4.84702 12.0629 4.30001 12.0629ZM13.925 18.2504C13.5171 18.2504 13.1183 18.1294 12.7791 17.9028C12.44 17.6761 12.1756 17.354 12.0195 16.9772C11.8634 16.6003 11.8226 16.1856 11.9021 15.7855C11.9817 15.3854 12.1782 15.0179 12.4666 14.7295C12.755 14.441 13.1226 14.2446 13.5226 14.165C13.9227 14.0854 14.3374 14.1263 14.7143 14.2824C15.0912 14.4385 15.4133 14.7028 15.6399 15.042C15.8665 15.3812 15.9875 15.7799 15.9875 16.1879C15.9875 16.7349 15.7702 17.2595 15.3834 17.6463C14.9966 18.0331 14.472 18.2504 13.925 18.2504Z" fill="black"/>
</svg>
