<svg width="20" height="18" viewBox="0 0 20 18" fill="none" xmlns="http://www.w3.org/2000/svg">
<path d="M10.415 9.7129V14.5254C10.415 14.7077 10.3426 14.8826 10.2137 15.0115C10.0847 15.1405 9.90986 15.2129 9.72752 15.2129C9.54519 15.2129 9.37032 15.1405 9.24139 15.0115C9.11246 14.8826 9.04002 14.7077 9.04002 14.5254V9.7129C9.04002 9.53056 9.11246 9.3557 9.24139 9.22676C9.37032 9.09783 9.54519 9.0254 9.72752 9.0254C9.90986 9.0254 10.0847 9.09783 10.2137 9.22676C10.3426 9.3557 10.415 9.53056 10.415 9.7129ZM13.581 9.64415L13.0997 14.4567C13.0902 14.5468 13.0986 14.6378 13.1244 14.7247C13.1502 14.8115 13.193 14.8924 13.2501 14.9627C13.3073 15.033 13.3778 15.0913 13.4576 15.1342C13.5374 15.1771 13.6249 15.2039 13.715 15.2129C13.7382 15.2142 13.7614 15.2142 13.7846 15.2129C13.9549 15.2127 14.1191 15.1493 14.2453 15.035C14.3715 14.9207 14.4508 14.7636 14.4678 14.5942L14.9491 9.78165C14.9673 9.60023 14.9127 9.41899 14.7973 9.27781C14.6819 9.13663 14.5152 9.04707 14.3338 9.02884C14.1523 9.0106 13.9711 9.06519 13.8299 9.18058C13.6888 9.29597 13.5992 9.46273 13.581 9.64415ZM5.87409 9.64415C5.85585 9.46273 5.7663 9.29597 5.62512 9.18058C5.48394 9.06519 5.3027 9.0106 5.12127 9.02884C4.93985 9.04707 4.7731 9.13663 4.65771 9.27781C4.54231 9.41899 4.48773 9.60023 4.50596 9.78165L4.98721 14.5942C5.00431 14.7643 5.08423 14.922 5.21135 15.0364C5.33848 15.1508 5.50368 15.2138 5.67471 15.2129C5.6979 15.2142 5.72114 15.2142 5.74432 15.2129C5.83415 15.2039 5.92133 15.1772 6.00087 15.1345C6.08041 15.0918 6.15076 15.0338 6.20789 14.9639C6.26503 14.894 6.30784 14.8136 6.33387 14.7271C6.35991 14.6407 6.36866 14.5499 6.35963 14.4601L5.87409 9.64415ZM19.3465 7.05399L18.0514 16.7701C18.0063 17.0998 17.8434 17.4022 17.593 17.6213C17.3425 17.8405 17.0213 17.9618 16.6885 17.9629H2.76659C2.43376 17.9618 2.11253 17.8405 1.86207 17.6213C1.61161 17.4022 1.44879 17.0998 1.40362 16.7701L0.10854 7.05399C0.0955572 6.95688 0.103484 6.85811 0.131788 6.7643C0.160092 6.6705 0.20812 6.58383 0.272652 6.5101C0.337185 6.43637 0.416732 6.37729 0.505962 6.33681C0.595192 6.29633 0.692043 6.27539 0.790024 6.2754H4.60307L9.2119 1.01001C9.27641 0.936855 9.35576 0.878266 9.44466 0.838135C9.53356 0.798003 9.62998 0.777248 9.72752 0.777248C9.82506 0.777248 9.92149 0.798003 10.0104 0.838135C10.0993 0.878266 10.1786 0.936855 10.2431 1.01001L14.852 6.2754H18.665C18.763 6.27539 18.8599 6.29633 18.9491 6.33681C19.0383 6.37729 19.1179 6.43637 19.1824 6.5101C19.2469 6.58383 19.295 6.6705 19.3233 6.7643C19.3516 6.85811 19.3595 6.95688 19.3465 7.05399ZM6.4301 6.2754H13.0249L9.72752 2.50704L6.4301 6.2754ZM17.8796 7.6504H1.57549L2.76659 16.5879H16.6885L17.8796 7.6504Z" fill="black"/>
</svg>
