<svg width="20" height="18" viewBox="0 0 20 18" fill="none" xmlns="http://www.w3.org/2000/svg">
<path d="M18.9376 8.22573H10.6877V6.16327H11.3752C11.7399 6.16327 12.0896 6.0184 12.3474 5.76054C12.6053 5.50269 12.7502 5.15295 12.7502 4.78829V2.03833C12.7502 1.67367 12.6053 1.32394 12.3474 1.06608C12.0896 0.80822 11.7399 0.663357 11.3752 0.663357H8.62523C8.26056 0.663357 7.91083 0.80822 7.65297 1.06608C7.39512 1.32394 7.25025 1.67367 7.25025 2.03833V4.78829C7.25025 5.15295 7.39512 5.50269 7.65297 5.76054C7.91083 6.0184 8.26056 6.16327 8.62523 6.16327H9.31272V8.22573H1.06285C0.880521 8.22573 0.705656 8.29816 0.576727 8.42709C0.447798 8.55602 0.375366 8.73089 0.375366 8.91322C0.375366 9.09555 0.447798 9.27042 0.576727 9.39935C0.705656 9.52828 0.880521 9.60071 1.06285 9.60071H3.81281V12.3507H3.12532C2.76065 12.3507 2.41092 12.4955 2.15306 12.7534C1.89521 13.0112 1.75034 13.361 1.75034 13.7256V16.4756C1.75034 16.8403 1.89521 17.19 2.15306 17.4478C2.41092 17.7057 2.76065 17.8506 3.12532 17.8506H5.87527C6.23994 17.8506 6.58967 17.7057 6.84753 17.4478C7.10539 17.19 7.25025 16.8403 7.25025 16.4756V13.7256C7.25025 13.361 7.10539 13.0112 6.84753 12.7534C6.58967 12.4955 6.23994 12.3507 5.87527 12.3507H5.18779V9.60071H14.8126V12.3507H14.1251C13.7605 12.3507 13.4107 12.4955 13.1529 12.7534C12.895 13.0112 12.7502 13.361 12.7502 13.7256V16.4756C12.7502 16.8403 12.895 17.19 13.1529 17.4478C13.4107 17.7057 13.7605 17.8506 14.1251 17.8506H16.8751C17.2398 17.8506 17.5895 17.7057 17.8473 17.4478C18.1052 17.19 18.2501 16.8403 18.2501 16.4756V13.7256C18.2501 13.361 18.1052 13.0112 17.8473 12.7534C17.5895 12.4955 17.2398 12.3507 16.8751 12.3507H16.1876V9.60071H18.9376C19.1199 9.60071 19.2948 9.52828 19.4237 9.39935C19.5526 9.27042 19.625 9.09555 19.625 8.91322C19.625 8.73089 19.5526 8.55602 19.4237 8.42709C19.2948 8.29816 19.1199 8.22573 18.9376 8.22573ZM8.62523 2.03833H11.3752V4.78829H8.62523V2.03833ZM5.87527 16.4756H3.12532V13.7256H5.87527V16.4756ZM16.8751 16.4756H14.1251V13.7256H16.8751V16.4756Z" fill="black"/>
</svg>
